<?xml version="1.0" standalone="no"?>
<!DOCTYPE svg PUBLIC "-//W3C//DTD SVG 20010904//EN"
 "http://www.w3.org/TR/2001/REC-SVG-20010904/DTD/svg10.dtd">
<svg version="1.0" xmlns="http://www.w3.org/2000/svg"
 width="1280.000000pt" height="298.000000pt" viewBox="0 0 1280.000000 298.000000"
 preserveAspectRatio="xMidYMid meet">

<g transform="translate(0.000000,298.000000) scale(0.100000,-0.100000)"
fill="#000000" stroke="none">
<path d="M20 1490 l0 -1491 32 6 c18 3 582 84 1253 181 671 96 1483 213 1805
259 322 46 1415 204 2430 350 1015 146 2108 304 2430 350 2140 308 4302 620
4510 649 135 20 260 38 278 41 l32 6 0 569 0 570 -6385 0 -6385 0 0 -1490z"/>
</g>
</svg>
